<?xml version="1.0" standalone="no"?><!DOCTYPE svg PUBLIC "-//W3C//DTD SVG 1.1//EN" "http://www.w3.org/Graphics/SVG/1.1/DTD/svg11.dtd"><svg t="1507517237063" class="icon" style="" viewBox="0 0 1024 1024" version="1.1" xmlns="http://www.w3.org/2000/svg" p-id="12093" xmlns:xlink="http://www.w3.org/1999/xlink" width="20" height="20"><defs><style type="text/css"></style></defs><path d="M946.176 813.44l-299.904-520.512c-4.032-6.976-6.208-14.912-6.208-23.04L640.448 128l96 0c17.664 0 32-14.336 32-32S754.112 64 736.448 64l-128 0c-17.664 0-32 14.336-32 32l-0.64 179.328c0 15.872 4.16 31.424 12.16 45.184l302.848 524.928c8.384 15.36 2.56 28.8 0 33.92C887.616 884.48 879.296 896 861.312 896L97.92 896c-17.344 0-26.368-11.52-28.928-16.64-3.264-5.12-9.024-18.56 0-33.92l301.76-517.312C378.688 314.432 382.848 298.88 382.848 283.008L384.448 96c0-17.664-14.336-32-32-32l-128 0c-17.664 0-32 14.336-32 32S206.72 128 224.448 128l96 0L318.592 278.208c0 8.128-2.112 16.064-6.208 23.04L12.992 813.44c-17.344 30.72-17.344 67.2 0 97.92C31.04 941.44 62.592 960 97.92 960l763.392 0c35.392 0 67.52-18.56 84.864-48.64C964.16 880.64 964.16 844.16 946.176 813.44z" p-id="12094" fill="#ffcb1f"></path></svg>